<svg version="1.1" id="Layer_1" xmlns="http://www.w3.org/2000/svg" xmlns:xlink="http://www.w3.org/1999/xlink" x="0px" y="0px"
	 width="100%" viewBox="0 0 1024 672" enable-background="new 0 0 1024 672" xml:space="preserve">
<path fill="#000000" opacity="1.000000" stroke="none" 
	d="
M468.718994,359.923950 
	C443.388641,363.748871 418.353058,365.931763 393.173004,364.855499 
	C371.438965,363.926453 350.062805,360.881775 330.415497,350.513000 
	C316.423126,343.128601 306.999817,332.242432 305.379272,316.107147 
	C304.287567,305.237091 307.709412,295.080536 312.461548,285.365509 
	C321.974030,265.918854 337.010345,251.085892 352.863983,236.952774 
	C355.241089,234.833633 357.263458,232.086288 361.017426,230.856308 
	C360.729584,233.614243 358.813385,234.564209 357.528687,235.897385 
	C346.809082,247.021561 337.459991,259.084106 332.139099,273.791718 
	C324.254578,295.585480 332.450043,313.939056 353.983521,323.022888 
	C369.274811,329.473450 385.439636,331.395081 401.809296,331.891174 
	C438.696198,333.009033 474.781250,327.487854 510.479279,318.622009 
	C542.558777,310.654816 573.738892,300.134735 603.900269,286.617798 
	C606.774902,285.329468 609.582153,283.801605 612.200989,282.055420 
	C615.128967,280.103180 614.877441,277.998993 611.643799,276.564484 
	C605.945007,274.036377 599.763916,273.422333 593.717529,272.338501 
	C586.494873,271.043823 579.341736,269.558868 572.499023,266.816925 
	C558.797424,261.326630 552.457581,250.950348 553.463501,236.254684 
	C554.022278,228.090363 554.898743,220.037933 557.544861,212.243530 
	C561.136597,201.663910 568.377563,194.896576 578.965149,191.656113 
	C591.528748,187.810867 604.557373,187.081039 617.519531,186.983231 
	C636.000366,186.843781 654.478088,185.432144 672.969482,186.665375 
	C683.832336,187.389862 694.507446,188.953201 704.430359,193.707993 
	C718.490234,200.445114 724.570679,214.075073 720.275085,229.118591 
	C716.165771,243.509674 707.222107,254.799164 696.906555,265.205048 
	C678.046936,284.229797 655.432495,297.961487 632.387329,311.091309 
	C631.712830,311.475647 630.934021,312.028534 629.884460,311.022217 
	C632.314270,307.268311 636.578064,305.844543 639.940613,303.353821 
	C652.716980,293.890076 664.513855,283.395996 674.405701,270.908173 
	C679.729980,264.186615 683.753967,256.772797 685.301758,248.163879 
	C687.107544,238.120224 683.496277,230.021469 674.573730,224.993805 
	C667.318787,220.905792 659.259460,219.126663 651.145447,218.512802 
	C632.955627,217.136627 614.875732,218.489899 597.039001,222.482330 
	C595.078430,222.921173 593.268616,223.813202 591.728638,225.156448 
	C587.964661,228.439590 588.191467,232.374908 592.492615,234.946152 
	C596.986694,237.632675 602.062927,238.713577 607.144714,239.689880 
	C618.579773,241.886749 630.148132,243.607040 641.085938,247.789993 
	C650.892639,251.540405 659.019043,257.136230 659.640564,268.907349 
	C660.112183,277.839142 655.967834,285.017059 649.723938,290.970825 
	C640.969055,299.318787 630.628967,305.487488 620.063477,311.157684 
	C578.619873,333.399078 534.238220,347.180573 488.295441,356.346954 
	C481.933777,357.616272 475.529266,358.670746 468.718994,359.923950 
z"/>
<path fill="#000000" opacity="1.000000" stroke="none" 
	d="
M426.567566,189.485809 
	C438.280731,186.955887 449.788025,188.039291 461.225952,188.355331 
	C465.703217,188.479034 467.452942,192.319275 467.125061,196.723221 
	C466.347046,207.171539 465.540222,217.617706 464.740143,228.064362 
	C464.600464,229.888428 464.306610,231.710846 464.309265,233.533707 
	C464.316162,238.272583 466.413940,240.704208 471.223999,240.813156 
	C480.712097,241.028091 490.210449,241.077194 499.698608,240.891129 
	C505.111023,240.785004 507.142914,237.987076 507.645477,231.462952 
	C508.552185,219.692612 509.395874,207.913651 510.580078,196.169983 
	C511.188385,190.137512 513.630676,188.174881 519.839905,188.079605 
	C527.998596,187.954422 536.162354,187.969635 544.320923,188.104874 
	C549.867004,188.196777 552.608704,191.083588 552.157837,196.717148 
	C550.726013,214.609573 549.047974,232.482132 547.535828,250.368347 
	C546.400818,263.793182 545.222046,277.217194 544.343567,290.659943 
	C543.478516,303.895782 543.663696,304.011078 531.060791,307.612823 
	C522.588562,310.034149 514.002136,312.052979 505.495819,314.358856 
	C501.862579,315.343750 500.546875,314.124908 500.958801,310.449707 
	C501.828735,302.688232 502.553223,294.910583 503.390198,287.145264 
	C504.065918,280.876068 501.443420,277.568054 495.089050,277.460999 
	C486.274872,277.312439 477.453522,277.390778 468.638672,277.555603 
	C463.594788,277.649902 460.690216,280.904266 460.273682,286.236237 
	C459.418854,297.177826 458.437653,308.109955 457.656189,319.056519 
	C457.425201,322.292603 456.022125,323.899414 452.789459,324.072540 
	C441.830170,324.659668 430.962677,326.444611 419.943695,326.396545 
	C416.105957,326.379791 415.157532,325.090820 415.467346,321.355103 
	C417.679810,294.677002 419.749939,267.986664 421.752869,241.291748 
	C422.897156,226.040604 423.844269,210.774536 424.841217,195.512619 
	C424.972931,193.496643 425.118591,191.524719 426.567566,189.485809 
z"/>
<path fill="#000000" opacity="1.000000" stroke="none" 
	d="
M493.345856,415.028809 
	C460.591309,409.736847 431.754456,396.950500 406.934875,375.429993 
	C405.582397,374.257324 403.843018,373.418976 403.261688,371.401581 
	C404.466431,369.435028 406.479065,370.052551 408.150085,370.056915 
	C421.647827,370.092224 435.118225,369.703857 448.509705,367.851685 
	C451.252472,367.472321 453.639923,368.131683 456.142212,369.393219 
	C486.444916,384.670135 518.161072,388.707550 551.130493,380.362366 
	C582.803528,372.345337 609.507629,356.329224 628.863342,329.496796 
	C632.238403,324.818054 636.161194,321.685638 641.200623,319.244934 
	C648.342896,315.785706 655.242493,311.825317 662.256897,308.073120 
	C663.988464,310.225372 662.890198,312.117401 662.356689,313.933105 
	C646.320740,368.498383 609.182983,400.272491 554.794006,413.287323 
	C534.608765,418.117493 514.212708,417.627441 493.345856,415.028809 
z"/>
<path fill="#000000" opacity="1.000000" stroke="none" 
	d="
M401.786499,264.661316 
	C399.821930,286.395935 404.884308,306.308563 414.715332,325.946930 
	C404.054352,326.825836 394.520905,326.401367 385.008148,324.952240 
	C384.516571,324.877350 384.030701,324.572571 383.556702,324.602753 
	C373.197205,325.263092 369.573578,319.338043 367.270203,310.097229 
	C359.826904,280.235718 362.312775,251.409683 373.749878,223.011047 
	C376.083923,217.215485 379.937164,215.697556 385.337280,216.077637 
	C390.026184,216.407684 393.083099,215.174164 393.251556,209.745316 
	C393.319733,207.548065 394.595276,205.687149 397.069611,205.393509 
	C398.154388,205.898636 398.029083,206.805634 398.235199,207.581543 
	C398.969940,210.347275 396.629944,214.840424 399.962677,215.694092 
	C404.463898,216.847061 410.447113,217.604919 414.029541,215.511749 
	C417.997803,213.193146 415.179413,206.988663 415.580292,202.505142 
	C415.811523,199.919083 414.001038,199.201675 411.702454,199.044876 
	C409.492859,198.894150 407.128235,198.963470 405.233765,197.101364 
	C408.706635,195.378357 416.041565,195.066681 421.340790,196.491791 
	C420.278290,204.232956 421.324219,211.937607 416.229736,219.514359 
	C407.280823,232.823624 403.241791,248.207611 401.786499,264.661316 
z"/>
<path fill="#000000" opacity="1.000000" stroke="none" 
	d="
M474.847961,133.672852 
	C518.054504,121.445267 559.212952,124.449837 598.117615,147.246002 
	C611.354248,155.002014 622.265015,165.476822 631.954956,177.275772 
	C633.014099,178.565414 632.968872,178.602570 633.658264,181.910645 
	C630.723511,182.600632 629.082153,180.397461 627.169189,179.035263 
	C595.267456,156.318451 559.838745,145.828705 520.764282,149.522278 
	C491.616180,152.277557 465.801056,163.700104 443.467560,182.663849 
	C437.446930,187.776077 430.795532,185.028976 424.434143,184.832214 
	C421.762787,184.749588 421.998199,178.775513 425.148926,176.039795 
	C433.347687,168.920959 442.323914,162.872681 451.757324,157.509872 
	C471.722961,146.159561 493.165741,139.368668 515.983032,136.955200 
	C519.104675,136.625015 522.291321,136.909698 525.441223,136.521118 
	C516.654663,135.828430 507.903778,136.302414 499.154510,137.284439 
	C490.172791,138.292572 481.539764,140.803116 472.912750,143.283051 
	C464.341400,145.746979 456.073364,149.132401 447.854004,152.700851 
	C445.826904,146.067780 446.287262,144.883316 451.594147,142.448395 
	C459.018646,139.041885 466.606201,136.059433 474.847961,133.672852 
z"/>
<path fill="#000000" opacity="1.000000" stroke="none" 
	d="
M561.757080,452.184174 
	C561.378906,450.832397 560.953369,449.889862 560.844543,448.912109 
	C560.566772,446.418213 557.491150,443.558014 560.078796,441.616760 
	C562.714966,439.639069 566.522644,440.642242 569.785889,441.082825 
	C571.716858,441.343536 571.967957,443.304504 572.401123,444.940796 
	C574.564209,453.111084 576.779602,461.267548 579.532288,469.461945 
	C582.968506,462.034546 584.897217,454.256500 586.890259,446.511963 
	C587.813782,442.923309 589.259583,440.694153 593.585449,440.685791 
	C597.504150,440.678223 599.238159,442.174225 600.200195,445.781769 
	C602.324036,453.746277 604.740967,461.632629 608.257324,469.507751 
	C610.020081,462.821075 611.826721,456.145599 613.535034,449.445007 
	C615.929626,440.052948 617.887085,438.930328 627.572632,441.667572 
	C628.446655,444.252869 626.905579,446.489594 626.267029,448.804901 
	C622.773804,461.472412 618.900269,474.039978 615.657898,486.769379 
	C614.322388,492.012604 610.795044,491.082733 607.207520,491.343475 
	C603.538147,491.610138 601.784180,490.096405 600.874512,486.611328 
	C598.862183,478.900879 596.559326,471.266235 593.370422,463.400879 
	C591.207520,470.750977 588.823303,478.045654 586.963928,485.471741 
	C585.829834,490.001160 583.568909,491.410248 578.904480,491.471619 
	C574.009766,491.536072 572.203491,489.518646 571.066650,485.224976 
	C568.173035,474.295502 564.946899,463.454071 561.757080,452.184174 
z"/>
<path fill="#000000" opacity="1.000000" stroke="none" 
	d="
M308.207520,489.605347 
	C304.556732,493.423004 300.393646,491.979065 296.459198,491.264923 
	C294.746674,490.954102 294.885803,488.921234 294.872314,487.429443 
	C294.833160,483.097137 294.751648,478.762268 294.859039,474.432678 
	C294.933136,471.445740 293.719910,470.233917 290.706207,470.320801 
	C285.711090,470.464844 280.705475,470.478546 275.711029,470.326172 
	C272.520874,470.228851 271.146881,471.383301 271.294891,474.675751 
	C271.474304,478.666779 271.106323,482.687775 271.381866,486.667664 
	C271.677704,490.940216 269.811005,492.422699 265.810577,492.033905 
	C264.490295,491.905609 263.146545,492.023071 261.813538,492.020172 
	C259.244263,492.014557 257.756348,490.969818 257.764191,488.157959 
	C257.805878,473.160767 257.823883,458.163330 257.784058,443.166168 
	C257.776672,440.393219 259.124023,439.231781 261.715454,439.164703 
	C263.547302,439.117279 265.380402,439.112946 267.211792,439.054291 
	C270.184418,438.959137 271.382721,440.417633 271.318481,443.336914 
	C271.226837,447.500519 271.404999,451.670258 271.301605,455.833252 
	C271.232513,458.617004 272.382935,459.731964 275.157593,459.672699 
	C280.321075,459.562469 285.491211,459.536987 290.653351,459.673340 
	C293.623322,459.751740 294.953949,458.617126 294.880890,455.609406 
	C294.787872,451.779236 295.027283,447.936920 294.835693,444.114258 
	C294.554779,438.508636 298.468323,439.168671 301.933929,439.136017 
	C305.373474,439.103638 308.540558,438.951935 308.449463,444.163666 
	C308.187469,459.156311 308.315796,474.155823 308.207520,489.605347 
z"/>
<path fill="#000000" opacity="1.000000" stroke="none" 
	d="
M701.824097,474.806885 
	C701.140198,474.569977 700.818542,474.455872 700.490662,474.433807 
	C691.365967,473.819092 691.365845,473.820587 691.335754,483.035706 
	C691.333618,483.701355 691.413574,484.378906 691.316833,485.030396 
	C691.017944,487.044189 692.350098,489.904236 689.770935,490.805847 
	C686.823975,491.836090 683.515808,491.727875 680.458435,490.766968 
	C679.002869,490.309479 678.935425,488.682007 678.936462,487.351349 
	C678.947876,473.207153 678.986328,459.062958 679.032959,444.918823 
	C679.041382,442.366882 680.154358,440.755920 682.917297,440.848206 
	C691.211975,441.125214 699.521118,440.137482 707.813110,441.482758 
	C714.310425,442.536896 719.319763,445.449707 720.851746,452.068726 
	C722.333618,458.470764 721.924072,464.730682 715.871765,469.143707 
	C715.497681,469.416473 715.278137,469.901215 714.842468,470.478485 
	C719.522034,476.288208 720.943604,483.475677 723.777039,490.124664 
	C714.318359,493.362946 710.954041,491.870056 707.631531,483.567657 
	C706.357300,480.383514 705.767822,476.713348 701.824097,474.806885 
M707.336975,461.814209 
	C710.615845,455.668732 708.802185,452.169556 702.131165,451.959167 
	C699.495605,451.876038 696.849731,452.063141 694.210327,452.170776 
	C691.365845,452.286835 691.098938,454.379364 691.405701,456.406555 
	C691.780945,458.886383 689.556335,462.855927 693.643677,463.443451 
	C697.927185,464.059082 702.545837,464.715363 707.336975,461.814209 
z"/>
<path fill="#000000" opacity="1.000000" stroke="none" 
	d="
M346.708771,476.045044 
	C345.628876,471.695068 342.295044,471.579712 339.144287,471.415619 
	C334.839355,471.191406 330.521576,471.578430 326.275146,470.289154 
	C317.772369,467.707581 313.568024,461.293976 314.788177,452.417786 
	C315.772308,445.258820 321.326385,440.853241 329.843933,440.728851 
	C337.498566,440.617065 345.156860,440.665283 352.812256,440.753143 
	C354.982269,440.778076 357.794067,440.025269 358.057526,443.666290 
	C358.330933,447.444275 355.628510,451.825867 352.655548,451.876373 
	C346.835144,451.975372 341.009369,451.817108 335.186829,451.711487 
	C332.152588,451.656494 328.563354,451.186096 328.363831,455.427002 
	C328.170990,459.526917 331.544983,460.606323 334.904602,460.627747 
	C339.417542,460.656525 343.880951,461.040741 348.305878,461.795654 
	C355.331451,462.994232 359.816193,468.081726 360.280731,475.135071 
	C360.758331,482.387238 357.329254,488.180328 350.503448,490.112610 
	C339.725433,493.163666 328.718658,491.277618 317.806824,490.705658 
	C315.307007,490.574677 314.542236,488.582001 314.971405,486.328033 
	C315.497009,483.567688 315.783905,480.591309 319.840698,480.651978 
	C326.496674,480.751556 333.156525,480.725494 339.812653,480.620575 
	C342.844971,480.572815 345.985199,480.394562 346.708771,476.045044 
z"/>
<path fill="#000000" opacity="1.000000" stroke="none" 
	d="
M470.667877,474.316833 
	C467.180817,489.203827 452.483917,493.554321 442.299103,491.876312 
	C427.308502,489.406525 420.989075,479.164917 421.171265,465.416992 
	C421.372070,450.269928 432.032410,440.168488 446.497131,440.213409 
	C460.487518,440.256866 471.433838,451.013062 472.020599,465.584167 
	C472.131836,468.346161 471.240570,471.148468 470.667877,474.316833 
M447.893066,481.094238 
	C455.352417,479.190277 458.790741,475.149231 459.488190,467.466583 
	C460.012360,461.692688 456.925903,455.231934 452.534454,452.910553 
	C447.629913,450.318024 442.028442,450.771759 438.161377,454.562347 
	C433.133850,459.490509 432.348846,465.534637 434.484650,472.062225 
	C436.471313,478.134155 440.104248,480.745483 447.893066,481.094238 
z"/>
<path fill="#000000" opacity="1.000000" stroke="none" 
	d="
M763.705444,440.875488 
	C768.121216,443.198456 766.383667,446.928864 765.972046,449.865845 
	C765.538025,452.963348 762.307251,451.986969 760.122314,452.038055 
	C755.459717,452.147095 750.784973,452.238159 746.130005,452.020508 
	C742.230835,451.838165 740.848389,453.422791 740.786743,457.260895 
	C740.719849,461.431274 743.465393,460.705139 745.855408,460.732941 
	C750.186829,460.783386 754.529724,460.912354 758.848633,460.668793 
	C762.942139,460.437958 763.442566,462.663940 763.380615,465.947357 
	C763.322327,469.040100 763.299133,471.604675 759.019226,471.387421 
	C754.532776,471.159607 750.018982,471.501892 745.527527,471.328186 
	C741.983704,471.191162 740.899353,472.757690 740.895752,476.108765 
	C740.892029,479.618439 742.351135,480.795258 745.727417,480.696228 
	C751.387390,480.530304 757.057922,480.746277 762.720459,480.631378 
	C765.741028,480.570068 767.145752,481.893616 766.803833,484.799622 
	C766.482178,487.534729 767.530212,491.283142 762.728027,491.275696 
	C752.564453,491.259918 742.400879,491.244019 732.237366,491.267578 
	C729.728516,491.273407 728.650757,490.148193 728.659119,487.626862 
	C728.706604,473.297729 728.723022,458.968262 728.671997,444.639221 
	C728.660217,441.336548 730.650330,440.869415 733.246460,440.868958 
	C743.243103,440.867188 753.239807,440.834778 763.705444,440.875488 
z"/>
<path fill="#000000" opacity="1.000000" stroke="none" 
	d="
M647.264465,440.798309 
	C655.688110,440.778809 655.684509,440.780273 658.760315,448.318359 
	C663.917786,460.958099 669.086487,473.593231 674.231750,486.237915 
	C674.783325,487.593414 675.716614,488.910553 674.991882,490.505432 
	C666.083252,492.886200 663.987854,492.088959 660.607300,484.599579 
	C659.586060,482.337189 658.238708,481.174500 655.690613,481.276978 
	C652.696777,481.397339 649.658630,481.582886 646.702698,481.222717 
	C641.323914,480.567261 638.000610,482.123291 636.397461,487.780304 
	C635.238892,491.868561 630.780396,492.488892 623.220642,490.413208 
	C623.120667,486.798096 625.237854,483.868439 626.505188,480.705658 
	C631.274109,468.804382 636.200500,456.966248 640.978638,445.068604 
	C642.080627,442.324463 643.547974,440.415253 647.264465,440.798309 
M651.002502,470.707245 
	C652.491089,470.477325 654.950562,471.096619 653.966309,468.261719 
	C652.641785,464.446686 651.812195,460.375610 649.013672,456.522919 
	C646.781799,461.240082 644.888428,465.475128 643.798950,470.028625 
	C646.240417,471.083313 648.253662,470.582825 651.002502,470.707245 
z"/>
<path fill="#000000" opacity="1.000000" stroke="none" 
	d="
M416.925049,482.485718 
	C413.373993,490.195129 406.474274,491.365540 399.643829,492.066650 
	C393.255524,492.722382 387.102478,491.180969 381.238434,488.439270 
	C378.538971,487.177155 377.672180,485.676361 379.341919,483.032166 
	C380.780884,480.753418 380.761322,476.892029 385.485718,478.896057 
	C390.227600,480.907532 395.300140,482.008453 400.579224,480.956635 
	C402.825226,480.509155 405.101898,479.811615 405.340393,477.288696 
	C405.614899,474.385620 403.076996,473.402618 400.846527,472.719482 
	C397.508911,471.697205 394.041046,471.100250 390.703339,470.078247 
	C382.879150,467.682465 378.498260,462.119324 378.886200,455.329132 
	C379.313934,447.842987 384.308105,442.235901 392.485382,441.014740 
	C399.101898,440.026703 405.795227,440.339996 412.216583,442.625427 
	C414.359344,443.388062 417.192932,444.001923 415.533905,447.341888 
	C414.228760,449.969391 414.598236,454.562500 409.215149,452.880127 
	C405.079285,451.587524 400.768066,450.909027 396.397339,451.432770 
	C394.196960,451.696442 391.905579,452.278137 391.491150,454.891663 
	C391.057709,457.625336 393.263580,458.754028 395.304535,459.428070 
	C398.775818,460.574432 402.402771,461.242065 405.897339,462.326660 
	C416.176392,465.516968 419.594727,471.645630 416.925049,482.485718 
z"/>
<path fill="#000000" opacity="1.000000" stroke="none" 
	d="
M477.065369,489.619720 
	C476.857452,474.682281 476.857422,460.188080 476.742798,445.694794 
	C476.716797,442.404785 477.833313,440.775360 481.358856,440.812897 
	C490.522339,440.910461 499.691620,440.969238 508.851074,440.741333 
	C514.069946,440.611420 513.664978,444.228729 513.906616,447.472656 
	C514.161560,450.895844 512.311462,452.221252 509.008575,452.142212 
	C504.678619,452.038574 500.344238,452.107117 496.011871,452.125916 
	C492.576172,452.140839 488.947754,451.265564 489.023376,457.041748 
	C489.095032,462.515503 492.495056,461.663971 495.760803,461.652588 
	C499.426483,461.639832 503.102539,461.739136 506.754364,461.494659 
	C509.898651,461.284119 511.489319,462.230194 511.299652,465.617859 
	C511.125183,468.733459 511.981628,472.314087 506.931854,472.210602 
	C502.601410,472.121857 498.262238,472.329681 493.936951,472.156189 
	C490.572052,472.021210 488.911774,473.185760 489.181824,476.729919 
	C489.333282,478.717957 489.206940,480.727020 489.208313,482.726624 
	C489.214508,491.777679 485.941956,493.782623 477.065369,489.619720 
z"/>
<path fill="#000000" opacity="1.000000" stroke="none" 
	d="
M530.671631,479.976471 
	C530.672302,471.834412 530.573975,464.187439 530.722168,456.545258 
	C530.784485,453.331818 529.589600,451.918976 526.371155,452.126343 
	C524.716492,452.233002 523.048462,452.143097 521.386658,452.125488 
	C515.373291,452.061768 514.215271,450.610199 514.885620,444.584747 
	C515.182739,441.914185 516.377808,440.781006 519.037109,440.790131 
	C530.670593,440.830048 542.304810,440.859558 553.937683,440.761292 
	C558.132874,440.725830 558.235107,443.370728 558.257141,446.414337 
	C558.279480,449.479736 558.110168,451.884155 553.979187,452.156586 
	C543.217834,452.866241 543.225098,453.007538 543.214111,464.103912 
	C543.206726,471.582764 543.021240,479.067627 543.264771,486.538422 
	C543.437927,491.850067 540.001160,491.236359 536.628052,491.325684 
	C533.141846,491.417877 530.187134,491.207855 530.657227,486.453308 
	C530.852478,484.478851 530.678284,482.467865 530.671631,479.976471 
z"/>
<path fill="#000000" opacity="1.000000" stroke="none" 
	d="
M653.943726,301.901337 
	C677.800903,287.312073 700.494629,271.829498 718.702942,250.578949 
	C718.013428,254.681229 715.046265,257.181366 712.745850,260.064575 
	C694.001648,283.557983 669.482422,299.291962 642.599487,311.689178 
	C615.230347,324.310638 587.402161,335.829376 558.690796,345.097717 
	C556.565552,345.783783 554.449768,347.088470 550.629211,345.546631 
	C586.557068,332.860626 621.328308,320.332336 653.943726,301.901337 
z"/>
<path fill="#000000" opacity="1.000000" stroke="none" 
	d="
M356.817444,142.456970 
	C362.451294,141.177170 367.770203,141.832855 373.067596,141.771454 
	C375.751129,141.740326 376.971100,143.390732 377.005219,145.904053 
	C377.061615,150.056824 377.042633,154.211884 376.974274,158.364670 
	C376.917145,161.835388 375.134277,163.455276 371.602448,163.341354 
	C367.784515,163.218201 363.957245,163.201553 360.139282,163.314850 
	C356.586853,163.420258 354.649414,161.826736 354.944244,158.310272 
	C355.380127,153.111420 353.490936,147.674149 356.817444,142.456970 
z"/>
<path fill="#000000" opacity="1.000000" stroke="none" 
	d="
M640.492371,527.552002 
	C639.101990,525.882996 637.927063,524.487061 636.159363,522.386719 
	C635.863525,526.611206 635.604126,530.116760 635.377869,533.624512 
	C635.254822,535.532104 635.949280,537.956482 632.809082,538.000183 
	C629.579346,538.045105 629.713440,535.632019 629.706177,533.431152 
	C629.686951,527.605774 629.654236,521.779785 629.727356,515.955261 
	C629.746887,514.400330 629.202698,512.414673 631.404724,511.742615 
	C633.521240,511.096680 635.294312,511.704987 636.717041,513.472717 
	C640.027954,517.586426 643.392761,521.656738 647.907166,525.533630 
	C647.907166,522.136047 647.874329,518.738037 647.919800,515.341064 
	C647.945801,513.393005 648.310669,511.633911 650.846252,511.556061 
	C653.617065,511.471039 654.158020,513.237000 654.159485,515.466309 
	C654.163513,521.624390 654.172180,527.782471 654.150269,533.940491 
	C654.144287,535.623596 654.144653,537.403015 652.009216,537.920166 
	C650.243774,538.347656 648.709595,537.860413 647.551636,536.415100 
	C645.262695,533.557861 642.988342,530.689026 640.492371,527.552002 
z"/>
<path fill="#000000" opacity="1.000000" stroke="none" 
	d="
M609.230469,514.772705 
	C613.559082,520.030945 614.344543,525.470154 611.464050,531.262451 
	C608.990356,536.236877 604.778198,538.388794 599.304077,538.338623 
	C592.962952,538.280579 588.781921,535.733582 586.627441,530.532227 
	C584.364624,525.069397 585.421265,518.260864 589.377258,514.802979 
	C594.027710,510.738098 599.395081,509.831329 605.156860,512.159241 
	C606.515747,512.708252 607.687378,513.720520 609.230469,514.772705 
M605.574036,520.145630 
	C605.018311,519.536438 604.553894,518.793762 603.891418,518.340759 
	C600.670044,516.137939 597.326843,515.858948 594.341858,518.596191 
	C591.143188,521.529358 590.690247,525.152222 592.728210,528.979980 
	C594.568054,532.435425 597.648804,533.346252 601.188660,532.400757 
	C605.301453,531.302368 607.033630,528.284058 606.781311,524.141113 
	C606.712891,523.017395 606.244324,521.918091 605.574036,520.145630 
z"/>
<path fill="#000000" opacity="1.000000" stroke="none" 
	d="
M410.596741,514.561646 
	C416.406006,510.193634 422.152649,509.705292 428.057007,513.386047 
	C432.158325,515.942810 434.741974,522.023254 433.862854,526.833801 
	C432.814362,532.571045 429.751709,536.695557 423.876862,537.962341 
	C418.575562,539.105347 413.415375,538.418762 409.738190,533.998230 
	C405.740784,529.192810 405.731842,523.626648 407.990112,518.025085 
	C408.469116,516.836975 409.519531,515.879211 410.596741,514.561646 
M425.128113,518.423767 
	C424.550629,518.104797 423.989777,517.749939 423.392853,517.472778 
	C419.925995,515.862793 416.766357,516.549805 414.522705,519.475891 
	C411.934021,522.851990 412.154602,526.719360 414.509155,530.106567 
	C416.556458,533.051697 419.839508,533.427246 422.996796,532.243958 
	C426.759491,530.833740 427.919800,527.634521 427.723785,523.829041 
	C427.626831,521.947693 427.033752,520.273499 425.128113,518.423767 
z"/>
<path fill="#000000" opacity="1.000000" stroke="none" 
	d="
M399.997559,188.551941 
	C399.983826,172.316223 398.685944,174.983627 413.481476,174.504684 
	C418.304962,174.348541 420.313751,175.649673 420.263519,180.845276 
	C420.148010,192.788422 420.377502,192.774475 408.389160,193.384384 
	C404.702911,193.571899 400.324219,195.211517 399.997559,188.551941 
z"/>
<path fill="#000000" opacity="1.000000" stroke="none" 
	d="
M389.247772,195.730499 
	C391.020752,200.628342 390.124695,205.297623 390.211517,209.913422 
	C390.225433,210.652649 389.823761,211.838165 389.283264,212.081146 
	C384.208588,214.362625 378.808655,213.533295 373.710754,212.651520 
	C370.241302,212.051407 371.055542,208.148727 371.040497,205.412888 
	C370.981232,194.641495 371.014465,194.599579 381.583130,194.702087 
	C384.034515,194.725876 386.581329,194.116714 389.247772,195.730499 
z"/>
<path fill="#000000" opacity="1.000000" stroke="none" 
	d="
M385.911713,511.679199 
	C387.968475,512.543701 390.638062,512.465576 389.690186,515.534119 
	C388.798706,518.420227 386.732208,517.481934 384.802460,516.970337 
	C381.893738,516.199341 379.002716,515.545593 376.887421,518.681213 
	C378.205688,521.729980 381.002899,521.311768 383.283508,521.977295 
	C386.644745,522.958252 390.194580,523.799683 391.190186,527.902344 
	C392.258606,532.305115 390.342865,535.820435 386.026764,537.374023 
	C381.608185,538.964478 377.204285,538.636108 372.875519,536.967834 
	C371.176086,536.312866 370.016357,535.317871 370.679413,533.190918 
	C371.360718,531.005432 372.762421,530.923218 374.572815,531.613647 
	C376.934784,532.514404 379.371979,532.974854 381.902985,532.582703 
	C383.107117,532.396118 384.233337,531.907715 384.472046,530.584167 
	C384.725555,529.178345 383.683777,528.424011 382.564423,528.027588 
	C380.849945,527.420410 379.077850,526.965210 377.312683,526.513916 
	C373.182465,525.458069 370.411774,523.334717 370.679626,518.577026 
	C370.945465,513.855103 373.994476,512.079834 378.096588,511.218475 
	C380.628021,510.686859 383.053680,511.159546 385.911713,511.679199 
z"/>
<path fill="#000000" opacity="1.000000" stroke="none" 
	d="
M487.018860,534.812622 
	C482.843506,527.818726 485.088043,520.554932 484.874176,513.534180 
	C484.822418,511.834686 486.470978,511.696808 487.877686,511.764862 
	C489.559937,511.846283 490.201324,512.900330 490.227081,514.399963 
	C490.289886,518.057007 490.241394,521.716431 490.334747,525.372437 
	C490.462372,530.370972 492.546234,532.921692 496.408813,532.790100 
	C501.221008,532.626160 501.832855,529.262756 501.833405,525.471558 
	C501.833923,521.979675 501.834076,518.487305 501.893402,514.996094 
	C501.928223,512.946167 502.600983,511.393127 505.076172,511.488892 
	C507.477966,511.581818 508.138885,513.104065 508.155121,515.166077 
	C508.179962,518.325439 508.221191,521.485168 508.197906,524.644287 
	C508.161591,529.572144 507.978180,534.663696 502.670197,537.004089 
	C497.335510,539.356262 491.980774,539.243591 487.018860,534.812622 
z"/>
<path fill="#000000" opacity="1.000000" stroke="none" 
	d="
M538.038147,520.434143 
	C537.987976,525.372620 538.018982,529.860840 537.923340,534.346436 
	C537.881226,536.319275 537.244507,538.007324 534.784851,537.980042 
	C532.345276,537.952942 531.753784,536.356262 531.743835,534.309509 
	C531.723572,530.153931 531.587524,525.993652 531.742798,521.844360 
	C531.864014,518.602356 530.953613,516.740234 527.312012,516.948425 
	C525.164062,517.071289 523.158508,516.507996 523.384216,513.708862 
	C523.593323,511.115051 525.646667,511.284241 527.500305,511.268341 
	C532.145081,511.228455 536.792480,511.074982 541.433289,511.190277 
	C543.433105,511.240021 546.145752,510.805939 546.197266,514.109985 
	C546.243469,517.069153 543.854736,516.878418 541.924622,517.034546 
	C539.944885,517.194580 538.261963,517.566772 538.038147,520.434143 
z"/>
<path fill="#000000" opacity="1.000000" stroke="none" 
	d="
M390.554260,184.856430 
	C388.615479,185.002365 387.126801,185.101166 385.638824,185.091125 
	C377.687622,185.037506 377.611084,185.027176 377.709473,177.079697 
	C377.738403,174.740784 376.445984,171.324387 379.274597,170.367279 
	C383.304901,169.003601 387.727173,169.282471 391.953827,170.381714 
	C392.231628,170.453964 392.468597,170.792603 392.664703,171.052490 
	C394.319611,173.246109 393.164978,182.719711 390.554260,184.856430 
z"/>
<path fill="#000000" opacity="1.000000" stroke="none" 
	d="
M413.119629,167.099335 
	C408.141052,167.508804 406.234558,165.430634 406.653992,160.950546 
	C406.823151,159.143585 406.728607,157.310196 406.722107,155.488953 
	C406.713470,153.056473 407.863861,151.793762 410.335571,151.798111 
	C411.328888,151.799866 412.322205,151.767365 413.315582,151.760971 
	C422.125610,151.704300 422.143250,151.722717 422.061371,160.535782 
	C422.002258,166.897491 421.814087,167.043167 413.119629,167.099335 
z"/>
<path fill="#000000" opacity="1.000000" stroke="none" 
	d="
M443.674438,154.463715 
	C440.015076,157.352036 436.130737,156.012665 432.416046,155.973648 
	C430.941681,155.958145 430.179352,154.614548 429.937592,153.214828 
	C429.768890,152.238297 429.781464,151.225204 429.769043,150.227753 
	C429.670410,142.324844 433.864838,139.173462 441.536163,141.304733 
	C443.542236,141.862061 444.085999,143.264267 444.062408,145.072144 
	C444.023376,148.065643 443.931213,151.058441 443.674438,154.463715 
z"/>
<path fill="#000000" opacity="1.000000" stroke="none" 
	d="
M450.642700,515.195312 
	C450.680725,512.721375 451.534668,511.613770 453.683197,511.744263 
	C455.937012,511.881195 456.304077,513.410706 456.310425,515.198975 
	C456.325775,519.510681 456.465271,523.829773 456.260742,528.131897 
	C456.095184,531.614441 457.473816,533.072327 460.903198,532.680237 
	C461.394287,532.624084 461.923828,532.569946 462.390411,532.690125 
	C464.762543,533.301208 469.088409,530.989563 468.899811,535.504333 
	C468.726135,539.663086 464.543976,538.046509 462.060852,538.083313 
	C450.549835,538.254150 450.553528,538.161560 450.618286,526.620178 
	C450.638733,522.971863 450.624268,519.323364 450.642700,515.195312 
z"/>
<path fill="#000000" opacity="1.000000" stroke="none" 
	d="
M402.378693,200.493317 
	C403.443573,200.340652 404.104492,200.206070 404.760071,200.228271 
	C412.993988,200.506943 415.143250,203.353210 413.475159,211.519577 
	C413.152283,213.100067 412.340973,213.876556 410.867126,213.979507 
	C409.384216,214.083084 407.877075,214.141327 406.402618,213.995880 
	C404.075836,213.766357 400.543823,214.761871 400.262970,211.446381 
	C399.959747,207.866867 397.916779,203.614456 402.378693,200.493317 
z"/>
<path fill="#000000" opacity="1.000000" stroke="none" 
	d="
M385.823914,149.293701 
	C387.136353,142.638321 392.064789,145.385529 395.532806,145.159897 
	C399.261536,144.917313 399.324341,147.948639 399.362549,150.757034 
	C399.469330,158.611389 396.477692,160.830658 388.702057,158.680954 
	C386.824890,158.161987 385.848663,157.125320 385.818512,155.211472 
	C385.789856,153.389771 385.807709,151.567352 385.823914,149.293701 
z"/>
<path fill="#000000" opacity="1.000000" stroke="none" 
	d="
M651.172485,222.641113 
	C658.879028,223.005402 665.769531,224.549271 671.862183,228.749191 
	C677.884766,232.900864 680.559387,238.685135 680.809143,246.658264 
	C678.069092,244.757095 678.636047,242.253143 677.645325,240.467834 
	C672.713623,231.580917 664.111938,228.612244 655.144226,226.373657 
	C649.350220,224.927307 643.434631,223.961990 637.388794,224.234940 
	C636.202148,224.288528 634.684448,224.702164 633.715027,222.556107 
	C639.512939,220.704163 645.130310,222.268188 651.172485,222.641113 
z"/>
<path fill="#000000" opacity="1.000000" stroke="none" 
	d="
M568.360229,531.856812 
	C568.332458,533.329285 568.323425,534.322998 568.273682,535.314758 
	C568.184204,537.101074 567.270630,538.066467 565.439514,537.994202 
	C563.649231,537.923584 562.706055,536.942505 562.699219,535.160278 
	C562.672302,528.205627 562.673706,521.250793 562.660095,514.296082 
	C562.656616,512.530701 563.384705,511.454926 565.283325,511.451813 
	C567.309448,511.448517 568.329529,512.441101 568.330627,514.486694 
	C568.333618,520.116821 568.349670,525.747009 568.360229,531.856812 
z"/>
<path fill="#000000" opacity="1.000000" stroke="none" 
	d="
M362.034912,176.780060 
	C365.134644,176.571045 367.090210,177.257080 367.002808,180.429428 
	C366.941559,182.653076 366.790436,184.889526 363.806488,185.027756 
	C361.892212,185.116455 359.398285,185.644211 358.964661,182.997726 
	C358.579498,180.646957 357.502625,177.480820 362.034912,176.780060 
z"/>
<path fill="#000000" opacity="1.000000" stroke="none" 
	d="
M418.967560,133.471802 
	C418.932281,136.241150 420.813507,139.552124 416.691803,140.213272 
	C414.888855,140.502502 412.523651,141.145676 411.463013,138.714600 
	C410.639954,136.828110 410.485321,134.529022 411.977997,133.100739 
	C413.982635,131.182587 416.501495,131.571503 418.967560,133.471802 
z"/>
<path fill="#000000" opacity="1.000000" stroke="none" 
	d="
M429.081299,157.059692 
	C430.834717,157.242432 432.358154,157.332474 433.155090,159.232803 
	C431.178070,160.871246 429.153137,161.797577 426.625244,160.749710 
	C426.062347,158.635559 427.514557,157.973679 429.081299,157.059692 
z"/>
</svg>